<?xml version="1.0" encoding="utf-8"?>
<!-- Generator: Adobe Illustrator 20.1.0, SVG Export Plug-In . SVG Version: 6.00 Build 0)  -->
<svg version="1.1" id="Calque_1" xmlns="http://www.w3.org/2000/svg" xmlns:xlink="http://www.w3.org/1999/xlink" x="0px" y="0px"
	 viewBox="0 0 208.3 208.3" style="enable-background:new 0 0 208.3 208.3;" xml:space="preserve">
<style type="text/css">
	.st0{fill:#FFFFFF;}
</style>
<title>behance</title>
<path class="st0" d="M81.1,89.3c2.7-1.7,4.1-4.6,4.1-8.9c0-4.7-1.8-7.8-5.4-9.3c-3.9-1.2-7.9-1.7-11.9-1.6H49.1v22.2h21.3
	C74.8,91.8,78.3,91,81.1,89.3z"/>
<path class="st0" d="M80.8,110.2c-2.4-1.1-5.8-1.7-10.1-1.7H49.1v26.9h21.3c4.4,0,7.8-0.6,10.2-1.8c4.4-2.2,6.6-6.4,6.6-12.6
	C87.2,115.8,85.1,112.2,80.8,110.2z"/>
<path class="st0" d="M104.2,0C46.6,0,0,46.6,0,104.2s46.6,104.2,104.2,104.2s104.2-46.6,104.2-104.2l0,0C208.3,46.6,161.7,0,104.2,0
	z M131.6,56.3h40.6v10.1h-40.6L131.6,56.3z M104,138.6c-1.8,3.1-4.3,5.8-7.1,7.9c-3.4,2.5-7.3,4.3-11.4,5.1
	c-4.7,0.9-9.5,1.4-14.2,1.4H25.8V52.1h48.7c12.3,0.2,21,3.8,26.1,10.7c3.1,4.5,4.8,9.9,4.6,15.4c0,6.2-1.6,11.1-4.7,14.8
	c-2.1,2.4-4.8,4.4-7.7,5.7c4.8,1.6,8.9,4.7,11.6,8.9c2.7,4.4,4.1,9.6,3.9,14.8C108.5,128.1,107,133.7,104,138.6L104,138.6z
	 M142.8,134.2c3.1,1.9,6.7,2.8,10.4,2.7c4.3,0,7.8-1.1,10.5-3.3c1.6-1.4,2.9-3.1,3.9-5h19.3c-0.5,4.3-2.8,8.6-7,13
	c-6.5,7-15.5,10.5-27.2,10.5c-9.3,0.1-18.3-3-25.4-8.9c-7.3-5.9-11-15.6-11-28.9c0-12.5,3.3-22.1,9.9-28.8c6.7-6.7,15.3-10,25.8-10
	c5.8-0.1,11.6,1.1,17,3.4c5.1,2.3,9.4,6,12.5,10.7c3,4.5,5,9.6,5.7,15c0.6,4.8,0.8,9.6,0.6,14.3h-52.5
	C135.5,126.2,138.1,131.3,142.8,134.2z"/>
<path class="st0" d="M163.2,95.1c-3.1-2.6-7.1-4-11.2-3.9c-4.9,0-8.6,1.4-11.3,4.1s-4.4,6.5-5,11.2h32.5
	C167.9,101.5,166.2,97.7,163.2,95.1z"/>
</svg>
