<svg id="Calque_1" data-name="Calque 1" xmlns="http://www.w3.org/2000/svg" viewBox="0 0 60.05 50.96"><title>bg-aurore</title><path d="M101.55,311c2.05-.11,3.42,2,3.88,1.59s-.29-1.69-.35-1.82-13.38-27.48-12-28.52h0l0,0c2-.35,6.85,5.3,6.85,5.3s1.54,1.79,12.22,12.9c1.28,1.33,1.92,2,2.23,2.28.62.56,1,.89,1,1s-1.82-.69-2.82-1.23h0a17.68,17.68,0,0,0-3.71-1.42c-2.8-.69-6.64.5-6.95-.25s3.67-3.54,7.59-6.65c.48-.38,1.24-1,1.1-1.29a.35.35,0,0,0-.44-.14c-.37.31.68,3.48,3.25,4.67,1.51.7,3.81.84,4.93-.35a4.26,4.26,0,0,0,1.07-2.47s0-.09,0-.18c0-1.42-.93-2.94-2.54-5a16.26,16.26,0,0,0-1.53-1.79,11.18,11.18,0,0,0,1.25,2c1.05,1.43,2.92,4,4.11,3.58a2.12,2.12,0,0,0,.87-.78,3,3,0,0,0,.45-1.09c.36-2.05-2.35-6.08-2.42-6.26h0a22.23,22.23,0,0,1,3.28,5c0,.1.68,1.43.56,1.5s-.65-.75-1-1.24a12.54,12.54,0,0,1-1.83-5.27c-.18-1.84-.34-3.58.59-4.11s3.17.48,3.54,1.88c.45,1.73-1.76,4-1.95,3.87a4.65,4.65,0,0,1,2.14-3.18,2.7,2.7,0,0,1,1.57-.54c1.38.06,3.19,1.6,3.71,2a1.05,1.05,0,0,0,.69.3.89.89,0,0,0,.52-.21c.74-.67-3.09-4.83-2.33-8.71a3.34,3.34,0,0,1,.48-1.32c.1,0-1.14,2.5-.22,4.08a3.82,3.82,0,0,0,5,1.09,3.17,3.17,0,0,0,1.17-2.11,4.55,4.55,0,0,0-3.42-4.78,2.12,2.12,0,0,0-1.75.31c-.44.38-.67,1.07-.45,1.31s.91,0,1.39-.25a5.23,5.23,0,0,0,1.39-.87c.59-.52,1.5-1.32,1.49-2.27,0-.25-.07-.73.09-.79a.17.17,0,0,1,.14,0c.4.26,5,6.28,4.62,6.51s-3.26-3.47-3.51-7.55c0-.8-.11-2.13.64-2.6.93-.58,2.84.28,3.25,1.5.52,1.54-1.33,3.68-1.51,3.59a4.17,4.17,0,0,1,1.64-3c.83-.62,2.18-1,3-.51s.44,1.15,1.07,1.54c.88.54,2.47-.16,3.36-1.08a4.25,4.25,0,0,0,.86-4.33c-.42-1.15-1.52-2.45-2.27-2.23s-1,1.73-.67,2.87a3.23,3.23,0,0,0,3.27,2.36c.27-.05.77-.22,1.89-1.66a16,16,0,0,0,1.94-3.15c.18-.37.49-.91.38-.79l-.94,1.83" transform="translate(-92.7 -261.92)" style="fill:none;stroke:#000;stroke-miterlimit:10;stroke-width:0.5px"/></svg>