<?xml version="1.0" encoding="utf-8"?>
<!-- Generator: Adobe Illustrator 20.1.0, SVG Export Plug-In . SVG Version: 6.00 Build 0)  -->
<svg version="1.1" id="Calque_1" xmlns="http://www.w3.org/2000/svg" xmlns:xlink="http://www.w3.org/1999/xlink" x="0px" y="0px"
	 viewBox="0 0 35.9 23.2" style="enable-background:new 0 0 35.9 23.2;" xml:space="preserve">
<style type="text/css">
	.st0{fill:none;stroke:#000000;stroke-width:0.5;stroke-miterlimit:10;}
</style>
<title>bugl</title>
<path class="st0" d="M1.5,21.5c1.2,0.2,1.7,1.5,1.9,1.4s0-1,0-1s-4-16.8-3.1-17.2c1.1,0,3.1,3.8,3.1,3.8S4,9.7,8.6,17.1
	c0.5,0.9,0.8,1.3,1,1.5c0.3,0.4,0.5,0.6,0.4,0.7s-0.9-0.6-1.4-1c-0.6-0.5-1.2-0.9-1.9-1.2C5.3,16.3,3,16.5,3,16s2.5-1.5,5-2.7
	c0.3-0.1,0.8-0.4,0.8-0.6s-0.2-0.2-0.2-0.1c-0.2,0.1-0.1,2,1.2,3c0.4,0.3,0.8,0.5,0.9,0.5c0.1,0,1.3,0.4,2.1-0.4
	c0.4-0.3,0.6-0.8,0.6-1.1c0.2-0.8-0.2-1.7-0.8-3.1c-0.2-0.4-0.4-0.9-0.6-1.2s0.3,0.8,0.4,1.2c0.4,0.9,1.1,2.6,1.8,2.5
	c0.1,0,0.5,0,0.8-0.4c0.2-0.2,0.2-0.3,0.2-0.4c0.3-1.1-0.7-3.9-0.6-3.8c-0.1-0.1,0,0,0,0c0.5,1,0.9,2.1,1.2,3.1
	c0,0.1,0.2,0.9,0.1,0.9s-0.3-0.5-0.4-0.8c-0.4-1-0.5-2.1-0.4-3.1s0.3-2,0.8-2.2s1.7,0.7,1.7,1.5c0,1-1.7,2-1.6,1.9
	c0.2-0.3,0.9-1.2,1.6-1.5c0.3-0.1,0.6-0.2,0.9-0.1c0.8,0.2,1.6,1.3,1.8,1.6c0.1,0.1,0.2,0.2,0.3,0.3c0.1,0,0.2,0,0.3,0
	c0.5-0.3-1.1-3-0.2-5.1c0.1-0.3,0.2-0.5,0.4-0.7c0.1,0-0.9,1.2-0.6,2.2c0.4,1,1.6,1.6,2.6,1.2c0.4-0.2,0.7-0.6,0.9-1
	c0.4-1.2-0.2-2.5-1.3-3.1c-0.3-0.1-0.7-0.1-1,0c-0.3,0.2-0.5,0.5-0.4,0.7c0.1,0.2,0.5,0.1,0.8,0c0.3-0.1,0.6-0.2,0.9-0.3
	c0.4-0.2,1-0.5,1.1-1.1c0-0.2,0.1-0.4,0.1-0.4s0.1-0.2,0.1,0s2,4.1,1.8,4.2c-0.2,0.1-1.4-2.3-1-4.6c0.1-0.5,0.2-1.2,0.7-1.4
	c0.5-0.2,1.5,0.5,1.6,1.2c0.1,0.9-1.4,1.9-1.3,1.8c0.1-0.3,0.7-1.2,1.3-1.5C28.3,3,28.9,3,29.4,3.4c0.3,0.3,0.1,0.7,0.4,1
	c0.3,0.3,1.4,0.2,2-0.2c0.7-0.5,1.1-1.4,1-2.3c-0.1-0.7-0.5-1.5-1-1.5S31,1.2,31.1,1.9c0,0.9,0.7,1.6,1.5,1.7c0.1,0,0.4,0,1.3-0.7
	c0.5-0.4,1-0.9,1.5-1.5C35.5,1.2,35.8,1,35.7,1c-0.3,0.3-0.5,0.7-0.8,1"/>
</svg>
