<?xml version="1.0" encoding="utf-8"?>
<!-- Generator: Adobe Illustrator 20.1.0, SVG Export Plug-In . SVG Version: 6.00 Build 0)  -->
<svg version="1.1" id="Calque_1" xmlns="http://www.w3.org/2000/svg" xmlns:xlink="http://www.w3.org/1999/xlink" x="0px" y="0px"
	 viewBox="0 0 208.3 208.3" style="enable-background:new 0 0 208.3 208.3;" xml:space="preserve">
<style type="text/css">
	.st0{fill:#FFFFFF;}
</style>
<title>linkedin</title>
<path class="st0" d="M104.2,0C46.6,0,0,46.6,0,104.2s46.6,104.2,104.2,104.2s104.2-46.6,104.2-104.2l0,0C208.3,46.6,161.7,0,104.2,0
	z M65.8,164.7H35.6V74h30.2V164.7z M50.7,61.6h-0.2c-10.1,0-16.7-7-16.7-15.7c0-8.9,6.8-15.7,17.1-15.7S67.6,37.1,67.8,46
	C67.8,54.7,61.2,61.6,50.7,61.6z M174.5,164.7h-30.2v-48.5c0-12.2-4.4-20.5-15.3-20.5c-8.3,0-13.3,5.6-15.5,11
	c-0.8,2.4-1.1,4.9-1,7.4v50.6H82.4c0,0,0.4-82.2,0-90.7h30.2v12.9c4-6.2,11.2-15,27.2-15c19.8,0,34.7,13,34.7,40.8L174.5,164.7z"/>
<path d="M112.6,87.2v-0.3l-0.2,0.3H112.6z"/>
</svg>
