<svg id="Calque_1" data-name="Calque 1" xmlns="http://www.w3.org/2000/svg" viewBox="0 0 208.34 208.34"><title>mail</title><path d="M144,175.83A104.17,104.17,0,1,0,248.17,280,104.17,104.17,0,0,0,144,175.83ZM80,227.14h130.7a11,11,0,0,1,7.54,3l-72.89,62.47L72.45,230.12A10.94,10.94,0,0,1,80,227.14ZM69,327.31v-90.6l52.7,45.81Zm141.69,8.88H80a11.05,11.05,0,0,1-7.54-3l54-46.29,18.89,16.53,18.89-16.53,54,46.29A11,11,0,0,1,210.67,336.19Zm-41.72-53.66,52.7-45.84v90.63Z" transform="translate(-39.83 -175.83)" style="fill:#fff"/></svg>