<svg id="Calque_1" data-name="Calque 1" xmlns="http://www.w3.org/2000/svg" viewBox="0 0 288 36.98"><title>tag</title><path d="M0,25.76H66.28c3.2,0,3.65-.12,4.09-.5.2-.17.41-.41,1.11-3.87.46-2.25.92-4.73.92-4.73.11-.57.31-1.5.28-1.39s-4.25,18.85-1.74,19.9C73,36,81.57,18.68,83.37,19.73c1.57.92-2.91,13.5-1.6,14,1.82.72,12.41-18.78,11-16.3-.33.59-1.29,2.29-3.16,5.69-1.41,2.57-1.47,2.68-1.46,3a4.51,4.51,0,0,0,3.53,3.74,5.07,5.07,0,0,0,5.49-2.55c.78-1.47.85-3.66,0-4.12s-2.71.89-3.47,2.5c-.51,1.08-.84,2.93.1,3.93,1.28,1.36,4.12.32,5.56-.21,4.43-1.62,7.67-5.67,7-7.13-.11-.23-.58-1-.84-.88a.26.26,0,0,0-.14.28c.06.22.69.21,1.74.29a8.82,8.82,0,0,1,1.47.15,6.52,6.52,0,0,1,2,.7c1.2.73,2.29,2.45,1.93,3.62-.68,2.25-6.73,2.2-6.65,2.21a15.39,15.39,0,0,0,8.88-2.51c2.2-1.43,4.14-3.66,6.74-8.84,1.79-3.55,1.39-4.76,1.19-5.52-.5-1.86-2.9-3.25-4.44-2.09-1.22.92-1.19,2.73-1,4.26.29,3.08.56,4.1.72,5.68s.14,2.65.15,3.44c.06,3.91-.34,4.33.16,5,1.41,1.77,6,.24,7.9-.62,2.51-1.13,3.17-2.37,3.34-2.74.56-1.18.76-3,0-3.45s-2.9.53-3.71,2.19a3.75,3.75,0,0,0,.35,4c1.61,1.78,5,1,6.23-.49a4.94,4.94,0,0,0,1-2.13c0-.22.05-.58.1-1.3s.07-1.35.06-1.16,0,.36-.07,1.4a5.69,5.69,0,0,0,0,1.26,2.35,2.35,0,0,0,1.14,1.45,4.39,4.39,0,0,0,3.61.28,3.42,3.42,0,0,0,1.56-1.63,5.85,5.85,0,0,0,.63-2.46,6.63,6.63,0,0,0,.05-1.27c0,.27-.12,1-.23,2-.24,2.12-.56,3.94-.73,4.83-.82,4.23-2.49,7.79-4.18,8.36l-.26.06c-1.34.22-3.13-1.22-3.43-2.74-.52-2.63,3.47-5.13,3.79-5.33l.08,0a10.61,10.61,0,0,1,2.67-1.14c2.06-.61,3.16-.82,3.16-.82,4-.44,7-.66,8.12-.67H151a9.28,9.28,0,0,1,1.57.13,5.88,5.88,0,0,1,2.68,1c1.58,1.31,1.16,3.77,1.76,3.81s.94-1.43,1-1.57S166.89,0,168.58.19c1.69,1.1,1.41,8.54,1.41,8.54s-.09,2.36.15,17.77a26,26,0,0,0,.08,3.19c.07.83.15,1.36.05,1.38a15.07,15.07,0,0,1-1.22-2.82,17.68,17.68,0,0,0-1.74-3.57c-1.59-2.41-5.2-4.16-4.91-4.92s5.1-.1,10.09.3c.61,0,1.58.12,1.69-.19a.35.35,0,0,0-.23-.4c-.48,0-1.88,3-.81,5.64.63,1.54,2.22,3.21,3.85,3.1a4.26,4.26,0,0,0,2.46-1.08l.13-.12c1-1,1.32-2.78,1.53-5.38a11.2,11.2,0,0,0,.1-2.35,15.53,15.53,0,0,0-.41,2.28c-.21,1.76-.57,4.9.57,5.43a2.12,2.12,0,0,0,1.17,0,3,3,0,0,0,1.07-.49c1.67-1.26,2.58-6.41,2.5-6.23a51.43,51.43,0,0,1-1,5.87c0,.11-.48,1.51-.61,1.48a4.69,4.69,0,0,1,.14-1.57,12.54,12.54,0,0,1,2.25-5.1c1.12-1.47,2.19-2.86,3.23-2.61s2,2.51,1.31,3.79c-.85,1.58-4,1.71-4.06,1.5a4.65,4.65,0,0,1,3.73-.87,2.7,2.7,0,0,1,1.52.68c1,1,1.24,3.34,1.32,4a1.05,1.05,0,0,0,.3.69.89.89,0,0,0,.52.21c1,0,1-5.64,4.23-8a3.34,3.34,0,0,1,1.25-.64c.05.08-2.54,1-2.94,2.84a3.82,3.82,0,0,0,2.94,4.22,3.17,3.17,0,0,0,2.29-.74,4.55,4.55,0,0,0,.75-5.83,2.12,2.12,0,0,0-1.49-1c-.58,0-1.22.33-1.22.65s.7.59,1.19.77a5.23,5.23,0,0,0,1.61.31,3.45,3.45,0,0,0,2.64-.65c.17-.18.45-.58.6-.52s.07.09.08.12c.12.46-.58,8-1.06,7.91s0-4.75,2.58-7.92c.51-.62,1.37-1.64,2.25-1.47,1.08.21,1.89,2.14,1.36,3.32-.67,1.48-3.48,1.79-3.55,1.6a4.17,4.17,0,0,1,3.26-1.11c1,.11,2.3.72,2.54,1.67.2.78-.46,1.14-.26,1.85.28,1,1.92,1.57,3.2,1.5a4.25,4.25,0,0,0,3.58-2.58c.48-1.13.56-2.83-.14-3.17s-1.92.58-2.45,1.65a3.23,3.23,0,0,0,.79,4c.23.14.71.37,2.52.07a16.6,16.6,0,0,0,3.58-1c1.23-.52,4.08-.53,9.73-.53H288" transform="translate(0 0.06)" style="fill:none;stroke:#000;stroke-miterlimit:10;stroke-width:0.5px"/></svg>